<svg width="81" height="80" viewBox="0 0 81 80" fill="none" xmlns="http://www.w3.org/2000/svg">
<path d="M67.1667 13.3333H13.8334C10.1667 13.3333 7.20002 16.3333 7.20002 20L7.16669 60C7.16669 63.6667 10.1667 66.6667 13.8334 66.6667H67.1667C70.8334 66.6667 73.8334 63.6667 73.8334 60V20C73.8334 16.3333 70.8334 13.3333 67.1667 13.3333ZM65.8334 27.5L42.2667 42.2333C41.2 42.9 39.8 42.9 38.7334 42.2333L15.1667 27.5C14.8324 27.3124 14.5398 27.0589 14.3063 26.7549C14.0729 26.4508 13.9036 26.1026 13.8086 25.7312C13.7136 25.3599 13.695 24.9731 13.7539 24.5944C13.8127 24.2156 13.9478 23.8527 14.151 23.5277C14.3541 23.2026 14.6211 22.9222 14.9358 22.7033C15.2504 22.4845 15.6063 22.3317 15.9817 22.2543C16.3571 22.177 16.7443 22.1766 17.1199 22.2532C17.4954 22.3298 17.8516 22.4818 18.1667 22.7L40.5 36.6667L62.8334 22.7C63.1485 22.4818 63.5046 22.3298 63.8802 22.2532C64.2557 22.1766 64.643 22.177 65.0184 22.2543C65.3938 22.3317 65.7496 22.4845 66.0643 22.7033C66.3789 22.9222 66.6459 23.2026 66.8491 23.5277C67.0522 23.8527 67.1873 24.2156 67.2462 24.5944C67.305 24.9731 67.2864 25.3599 67.1914 25.7312C67.0965 26.1026 66.9272 26.4508 66.6937 26.7549C66.4603 27.0589 66.1676 27.3124 65.8334 27.5Z" fill="#FFBF00"/>
</svg>
