<svg width="81" height="80" viewBox="0 0 81 80" fill="none" xmlns="http://www.w3.org/2000/svg">
<path d="M40.5 28.35C34.05 28.35 28.85 33.6 28.85 40C28.85 46.4 34.1 51.65 40.5 51.65C46.9 51.65 52.15 46.4 52.15 40C52.15 33.6 46.9 28.35 40.5 28.35ZM75.5 40C75.5 35.15 75.5 30.4 75.25 25.55C75 19.95 73.7 14.95 69.6 10.9C65.5 6.8 60.55 5.5 54.95 5.25C50.1 5 45.35 5 40.5 5C35.65 5 30.9 5 26.05 5.25C20.45 5.5 15.45 6.8 11.4 10.9C7.3 15 6 19.95 5.75 25.55C5.5 30.4 5.5 35.15 5.5 40C5.5 44.85 5.5 49.6 5.75 54.45C6 60.05 7.3 65.05 11.4 69.1C15.5 73.2 20.45 74.5 26.05 74.75C30.9 75 35.65 75 40.5 75C45.35 75 50.1 75 54.95 74.75C60.55 74.5 65.55 73.2 69.6 69.1C73.7 65 75 60.05 75.25 54.45C75.55 49.65 75.5 44.85 75.5 40ZM40.5 57.95C30.55 57.95 22.55 49.95 22.55 40C22.55 30.05 30.55 22.05 40.5 22.05C50.45 22.05 58.45 30.05 58.45 40C58.45 49.95 50.45 57.95 40.5 57.95ZM59.2 25.5C56.9 25.5 55 23.65 55 21.3C55 18.95 56.85 17.1 59.2 17.1C61.55 17.1 63.4 18.95 63.4 21.3C63.4127 21.8477 63.3127 22.3921 63.1062 22.8996C62.8998 23.407 62.5914 23.8667 62.2 24.25C61.8167 24.6414 61.357 24.9498 60.8496 25.1562C60.3421 25.3627 59.7977 25.4627 59.25 25.45L59.2 25.5Z" fill="#FFBF00"/>
</svg>
