<svg width="80" height="80" viewBox="0 0 80 80" fill="none" xmlns="http://www.w3.org/2000/svg">
<path fill-rule="evenodd" clip-rule="evenodd" d="M37.234 78.0504L37.252 78.0684L37.264 78.0804C38.0513 78.6771 39.0121 79 40 79C40.9879 79 41.9487 78.6771 42.736 78.0804L42.748 78.0684L42.766 78.0504L42.838 77.9964C43.2242 77.6981 43.6043 77.392 43.978 77.0783C48.4514 73.3069 52.5614 69.1244 56.254 64.5856C62.86 56.4132 70 44.5325 70 31.0017C70 23.0448 66.8393 15.4137 61.2132 9.7873C55.5871 4.16088 47.9565 1 40 1C32.0435 1 24.4129 4.16088 18.7868 9.7873C13.1607 15.4137 10 23.0448 10 31.0017C10 44.5325 17.14 56.4132 23.752 64.5856C27.4446 69.1244 31.5546 73.3069 36.028 77.0783L37.162 77.9964L37.234 78.0504ZM40 40.0022C41.1819 40.0022 42.3522 39.7694 43.4442 39.3171C44.5361 38.8648 45.5282 38.2018 46.364 37.366C47.1997 36.5303 47.8626 35.538 48.3149 34.4461C48.7672 33.3541 49 32.1837 49 31.0017C49 29.8197 48.7672 28.6494 48.3149 27.5574C47.8626 26.4654 47.1997 25.4732 46.364 24.6374C45.5282 23.8016 44.5361 23.1386 43.4442 22.6863C42.3522 22.234 41.1819 22.0012 40 22.0012C37.6131 22.0012 35.3239 22.9495 33.636 24.6374C31.9482 26.3253 31 28.6146 31 31.0017C31 33.3888 31.9482 35.6781 33.636 37.366C35.3239 39.054 37.6131 40.0022 40 40.0022Z" fill="#FFBF00"/>
</svg>
