<svg width="80" height="80" viewBox="0 0 80 80" fill="none" xmlns="http://www.w3.org/2000/svg">
<path fill-rule="evenodd" clip-rule="evenodd" d="M55.1733 73.7767C50.3733 73.6 36.77 71.72 22.5233 57.4767C8.27998 43.23 6.40331 29.63 6.22331 24.8267C5.95665 17.5067 11.5633 10.3967 18.04 7.61999C18.8199 7.28321 19.674 7.15499 20.5184 7.2479C21.3628 7.34082 22.1686 7.65168 22.8566 8.14999C28.19 12.0367 31.87 17.9167 35.03 22.54C35.7253 23.5558 36.0225 24.7918 35.8652 26.0126C35.7078 27.2335 35.1068 28.3537 34.1766 29.16L27.6733 33.99C27.3591 34.2169 27.138 34.5501 27.0509 34.9277C26.9638 35.3054 27.0168 35.7018 27.2 36.0433C28.6733 38.72 31.2933 42.7067 34.2933 45.7067C37.2933 48.7067 41.47 51.5 44.3333 53.14C44.6923 53.3415 45.1149 53.3979 45.5142 53.2974C45.9134 53.197 46.2591 52.9474 46.48 52.6L50.7133 46.1567C51.4916 45.1228 52.6397 44.4302 53.9172 44.2239C55.1947 44.0176 56.5025 44.3137 57.5667 45.05C62.2566 48.2967 67.73 51.9133 71.7366 57.0433C72.2754 57.7363 72.6181 58.5614 72.7289 59.4321C72.8398 60.3029 72.7146 61.1875 72.3666 61.9933C69.5766 68.5033 62.5167 74.0467 55.1733 73.7767Z" fill="#FFBF00"/>
</svg>
