<svg width="80" height="80" viewBox="0 0 80 80" fill="none" xmlns="http://www.w3.org/2000/svg">
<path fill-rule="evenodd" clip-rule="evenodd" d="M58.1732 3.0158C46.1494 0.328065 33.6805 0.328065 21.6566 3.0158L20.3611 3.30243C16.978 4.05658 13.8706 5.73487 11.3848 8.15045C8.89908 10.566 7.13252 13.6241 6.28183 16.9842C3.23931 28.9947 3.23931 41.5743 6.28183 53.5849C7.0932 56.7893 8.73833 59.7219 11.0501 62.0847C13.3619 64.4475 16.2579 66.1562 19.4438 67.0373L21.221 77.6465C21.2777 77.9833 21.4237 78.2988 21.6438 78.5601C21.8638 78.8214 22.1499 79.0189 22.4723 79.1321C22.7946 79.2453 23.1414 79.27 23.4765 79.2036C23.8116 79.1372 24.1228 78.9822 24.3777 78.7547L34.8148 69.4183C42.6497 69.8912 50.5121 69.2648 58.1732 67.5571L59.4726 67.2705C62.8557 66.5163 65.9631 64.838 68.4488 62.4225C70.9346 60.0069 72.7011 56.9488 73.5518 53.5887C76.5944 41.5782 76.5944 28.9986 73.5518 16.988C72.7009 13.6274 70.9337 10.569 68.4472 8.1534C65.9608 5.73778 62.8526 4.05977 59.4688 3.30626L58.1732 3.0158ZM24.8822 16.6747C24.1719 16.5706 23.4474 16.7136 22.8299 17.0798H22.7764C21.3432 17.9205 20.0515 18.9791 18.9508 20.225C18.0336 21.2836 17.5368 22.3537 17.4069 23.3856C17.3304 23.9971 17.3839 24.6162 17.5636 25.2009L17.6324 25.2391C18.6642 28.2698 20.0095 31.1857 21.6528 33.9297C23.7727 37.7833 26.3802 41.3477 29.4109 44.535L29.5026 44.665L29.6479 44.772L29.7358 44.8752L29.8428 44.9669C33.0415 48.0064 36.6142 50.6263 40.4748 52.7632C44.8889 55.1671 47.5679 56.3021 49.1769 56.776V56.7989C49.6469 56.9442 50.075 57.0091 50.5068 57.0091C51.8778 56.9108 53.1757 56.3534 54.191 55.4269C55.433 54.3263 56.484 53.0307 57.3019 51.5899V51.5632C58.07 50.1109 57.8102 48.7427 56.7019 47.8141C54.4775 45.8666 52.0701 44.1388 49.5132 42.6547C47.8011 41.7261 46.0622 42.2878 45.359 43.228L43.857 45.1236C43.085 46.0637 41.6863 45.9338 41.6863 45.9338L41.6481 45.9567C31.2109 43.293 28.4249 32.7259 28.4249 32.7259C28.4249 32.7259 28.295 31.2889 29.2619 30.5552L31.1422 29.0417C32.0441 28.308 32.6708 26.5729 31.7039 24.8608C30.2233 22.3057 28.4994 19.8996 26.5561 17.6759C26.131 17.1538 25.5357 16.798 24.8745 16.6708M42.5156 12.0809C42.0088 12.0809 41.5228 12.2823 41.1644 12.6406C40.8061 12.999 40.6047 13.485 40.6047 13.9918C40.6047 14.4986 40.8061 14.9846 41.1644 15.343C41.5228 15.7013 42.0088 15.9027 42.5156 15.9027C47.3501 15.9027 51.3629 17.481 54.5388 20.5078C56.1706 22.1626 57.4433 24.1232 58.2764 26.271C59.1134 28.4226 59.4955 30.7195 59.3962 33.0202C59.3856 33.2711 59.4246 33.5217 59.5109 33.7575C59.5972 33.9934 59.7291 34.21 59.8991 34.3949C60.2424 34.7683 60.72 34.99 61.2268 35.0113C61.7336 35.0326 62.2281 34.8517 62.6015 34.5084C62.9749 34.1651 63.1966 33.6875 63.2179 33.1807C63.3319 30.3509 62.8623 27.528 61.8383 24.8875C60.8095 22.2337 59.2429 19.8213 57.2369 17.8021L57.1987 17.7638C53.2585 13.9994 48.2711 12.0809 42.5156 12.0809ZM42.3857 18.3639C41.8789 18.3639 41.3928 18.5652 41.0345 18.9235C40.6761 19.2819 40.4748 19.7679 40.4748 20.2747C40.4748 20.7815 40.6761 21.2675 41.0345 21.6259C41.3928 21.9843 41.8789 22.1856 42.3857 22.1856H42.4506C45.9361 22.434 48.4737 23.5958 50.2508 25.5028C52.0737 27.4672 53.0177 29.9093 52.9451 32.9284C52.9334 33.4352 53.1236 33.9259 53.4737 34.2925C53.8238 34.6591 54.3052 34.8716 54.812 34.8833C55.3188 34.8949 55.8095 34.7048 56.1761 34.3547C56.5427 34.0045 56.7552 33.5231 56.7668 33.0163C56.8585 29.0532 55.5821 25.6328 53.0521 22.9041V22.8964C50.4648 20.1218 46.9144 18.6543 42.6417 18.3677L42.5768 18.36L42.3857 18.3639ZM42.3131 24.7652C42.0573 24.7427 41.7997 24.7719 41.5555 24.8511C41.3113 24.9303 41.0856 25.0579 40.8918 25.2263C40.698 25.3947 40.5401 25.6004 40.4276 25.8311C40.3151 26.0619 40.2502 26.3129 40.2368 26.5693C40.2235 26.8257 40.2619 27.0821 40.3498 27.3233C40.4378 27.5645 40.5734 27.7855 40.7487 27.9731C40.9239 28.1607 41.1351 28.311 41.3698 28.4152C41.6044 28.5194 41.8576 28.5752 42.1143 28.5793C43.7118 28.6634 44.7322 29.1449 45.3743 29.7908C46.0201 30.4405 46.5017 31.4838 46.5896 33.1157C46.5943 33.3721 46.6507 33.625 46.7552 33.8592C46.8598 34.0934 47.0104 34.3041 47.1982 34.4789C47.3859 34.6536 47.6069 34.7888 47.848 34.8763C48.0891 34.9639 48.3453 35.0019 48.6014 34.9883C48.8576 34.9747 49.1083 34.9097 49.3388 34.7972C49.5692 34.6846 49.7747 34.5268 49.9428 34.3331C50.111 34.1395 50.2385 33.914 50.3177 33.67C50.3968 33.4261 50.4261 33.1687 50.4036 32.9132C50.2814 30.6201 49.5629 28.5946 48.0915 27.1041C46.6125 25.6137 44.5984 24.8875 42.3131 24.7652Z" fill="#FFBF00"/>
</svg>
